<svg width="16" height="26" viewBox="0 0 16 26" fill="none" xmlns="http://www.w3.org/2000/svg">
<path d="M10.9749 23.7101L11.1808 24.1657L10.9749 23.7101ZM8.23386 24.949L8.43979 25.4046H8.43979L8.23386 24.949ZM7.76614 24.949L7.56021 25.4046H7.56021L7.76614 24.949ZM5.0251 23.7101L4.81917 24.1657H4.81917L5.0251 23.7101ZM11.012 18.9265L10.6889 19.3081L11.012 18.9265ZM6.90172 19.8595C6.62557 19.8595 6.40172 20.0833 6.40172 20.3595C6.40172 20.6356 6.62557 20.8595 6.90172 20.8595V19.8595ZM6.09163 21.8725C6.36777 21.8725 6.59163 21.6487 6.59163 21.3725C6.59163 21.0964 6.36777 20.8725 6.09163 20.8725V21.8725ZM8.04934 21.8847C7.7732 21.8847 7.54934 22.1086 7.54934 22.3847C7.54934 22.6608 7.7732 22.8847 8.04934 22.8847V21.8847ZM8.39579 6.74052C8.67193 6.74052 8.89579 6.51667 8.89579 6.24052C8.89579 5.96438 8.67193 5.74052 8.39579 5.74052V6.74052ZM7.96725 18.4152C7.96725 18.6914 8.19111 18.9152 8.46725 18.9152C8.7434 18.9152 8.96725 18.6914 8.96725 18.4152H7.96725ZM8.46725 13.019L8.46479 12.519L8.46725 13.019ZM8.46725 11.6065L8.46479 12.1065L8.46725 11.6065ZM8.46725 10.336L8.47079 10.836L8.46725 10.336ZM8.46725 15.7021H8.96725C8.96725 15.426 8.7434 15.2021 8.46725 15.2021V15.7021ZM1.54274 7.95726C1.54274 4.39102 4.43376 1.5 8 1.5V0.5C3.88147 0.5 0.54274 3.83873 0.54274 7.95726H1.54274ZM8 1.5C11.5663 1.5 14.4573 4.39102 14.4573 7.95726H15.4573C15.4573 3.83873 12.1185 0.5 8 0.5V1.5ZM4.06027 14.2976C4.06027 12.9654 3.33036 11.8994 2.72123 10.9585C2.08542 9.97634 1.54274 9.08552 1.54274 7.95726H0.54274C0.54274 9.41753 1.25883 10.5396 1.88178 11.5019C2.53142 12.5054 3.06027 13.3153 3.06027 14.2976H4.06027ZM14.4573 7.95726C14.4573 9.08734 13.9126 9.99998 13.2775 10.9916C12.6718 11.9372 11.9397 13.0063 11.9397 14.2976H12.9397C12.9397 13.3574 13.4664 12.5506 14.1195 11.531C14.7431 10.5575 15.4573 9.41571 15.4573 7.95726H14.4573ZM10.769 23.2545L8.02793 24.4934L8.43979 25.4046L11.1808 24.1657L10.769 23.2545ZM7.97207 24.4934L5.23103 23.2545L4.81917 24.1657L7.56021 25.4046L7.97207 24.4934ZM8.02793 24.4934C8.00845 24.5022 7.99154 24.5022 7.97207 24.4934L7.56021 25.4046C7.8415 25.5318 8.15849 25.5318 8.43979 25.4046L8.02793 24.4934ZM4.11561 23.0159C4.11561 23.4865 4.36505 23.9605 4.81917 24.1657L5.23103 23.2545C5.1913 23.2365 5.11561 23.1594 5.11561 23.0159H4.11561ZM10.8844 23.0159C10.8844 23.1594 10.8087 23.2365 10.769 23.2545L11.1808 24.1657C11.635 23.9605 11.8844 23.4865 11.8844 23.0159H10.8844ZM10.3331 18.1779H5.6669V19.1779H10.3331V18.1779ZM10.3331 19.1779C10.4692 19.1779 10.5927 19.2266 10.6889 19.3081L11.3351 18.5449C11.065 18.3162 10.7146 18.1779 10.3331 18.1779V19.1779ZM10.6889 19.3081C10.8093 19.41 10.8844 19.5606 10.8844 19.7292H11.8844C11.8844 19.2542 11.6703 18.8286 11.3351 18.5449L10.6889 19.3081ZM11.9397 14.2976C11.9397 16.4844 11.3872 17.8093 10.6503 18.5812L11.3737 19.2717C12.3464 18.2526 12.9397 16.6424 12.9397 14.2976H11.9397ZM5.11561 19.7292C5.11561 19.5606 5.19069 19.41 5.31102 19.3081L4.66477 18.545C4.32966 18.8288 4.11561 19.2542 4.11561 19.7292H5.11561ZM5.31102 19.3081C5.40729 19.2266 5.53076 19.1779 5.6669 19.1779V18.1779C5.28537 18.1779 4.93486 18.3163 4.66477 18.545L5.31102 19.3081ZM5.34959 18.5813C4.61279 17.8094 4.06027 16.4845 4.06027 14.2976H3.06027C3.06027 16.6425 3.65351 18.2527 4.6262 19.2718L5.34959 18.5813ZM10.8844 19.7292V20.3595H11.8844V19.7292H10.8844ZM11.3844 19.8595H6.90172V20.8595H11.3844V19.8595ZM5.11561 23.0159V21.3725H4.11561V23.0159H5.11561ZM5.11561 21.3725V19.7292H4.11561V21.3725H5.11561ZM4.61561 21.8725H6.09163V20.8725H4.61561V21.8725ZM10.8844 20.3595V22.3847H11.8844V20.3595H10.8844ZM10.8844 22.3847V23.0159H11.8844V22.3847H10.8844ZM11.3844 21.8847H8.04934V22.8847H11.3844V21.8847ZM5.65679 8.28841C5.65679 7.95471 5.87181 7.57962 6.37267 7.26295C6.86721 6.95027 7.58116 6.74052 8.39579 6.74052V5.74052C7.42157 5.74052 6.51601 5.98921 5.83827 6.41772C5.16684 6.84224 4.65679 7.4911 4.65679 8.28841H5.65679ZM8.39579 15.2021C7.58116 15.2021 6.86721 14.9924 6.37267 14.6797C5.87181 14.363 5.65679 13.988 5.65679 13.6542H4.65679C4.65679 14.4516 5.16684 15.1004 5.83827 15.5249C6.51602 15.9535 7.42157 16.2021 8.39579 16.2021V15.2021ZM8.39579 9.42344C8.86851 9.42344 9.4402 9.45875 9.88 9.55415C10.1042 9.60279 10.2558 9.6592 10.3394 9.70976C10.4265 9.76247 10.3432 9.74366 10.3432 9.62987H11.3432C11.3432 9.23456 11.0761 8.98669 10.8571 8.85416C10.6344 8.71948 10.3575 8.63448 10.092 8.57688C9.55242 8.45983 8.90039 8.42344 8.39579 8.42344V9.42344ZM5.65679 10.9713C5.65679 10.6677 5.8327 10.3328 6.24283 10.034L5.6539 9.22578C5.07778 9.6456 4.65679 10.2488 4.65679 10.9713H5.65679ZM6.24283 10.034C6.73594 9.67464 7.50374 9.42344 8.39579 9.42344V8.42344C7.33319 8.42344 6.34855 8.7196 5.6539 9.22578L6.24283 10.034ZM8.39579 9.8363C7.50374 9.8363 6.73594 9.5851 6.24283 9.22578L5.6539 10.034C6.34855 10.5401 7.33319 10.8363 8.39579 10.8363V9.8363ZM6.24283 9.22578C5.8327 8.92692 5.65679 8.59209 5.65679 8.28841H4.65679C4.65679 9.01092 5.07778 9.61414 5.6539 10.034L6.24283 9.22578ZM5.65679 13.6542C5.65679 13.3506 5.8327 13.0157 6.24283 12.7169L5.6539 11.9087C5.07778 12.3285 4.65679 12.9317 4.65679 13.6542H5.65679ZM6.24283 12.7169C6.73594 12.3576 7.50374 12.1064 8.39579 12.1064V11.1064C7.33319 11.1064 6.34855 11.4025 5.6539 11.9087L6.24283 12.7169ZM8.39579 12.5192C7.50375 12.5192 6.73594 12.268 6.24283 11.9087L5.6539 12.7169C6.34855 13.2231 7.33319 13.5192 8.39579 13.5192V12.5192ZM6.24283 11.9087C5.8327 11.6098 5.65679 11.275 5.65679 10.9713H4.65679C4.65679 11.6938 5.07778 12.2971 5.6539 12.7169L6.24283 11.9087ZM10.3432 12.3128C10.3432 12.2277 10.4055 12.21 10.3398 12.252C10.2673 12.2984 10.1296 12.3522 9.91588 12.3982C9.49637 12.4885 8.94479 12.5167 8.46479 12.519L8.46972 13.519C8.96555 13.5166 9.60195 13.4887 10.1265 13.3758C10.3848 13.3201 10.6581 13.2354 10.8786 13.0944C11.106 12.949 11.3432 12.6951 11.3432 12.3128H10.3432ZM8.46479 12.519C8.44155 12.5192 8.41855 12.5192 8.39579 12.5192V13.5192C8.42012 13.5192 8.44477 13.5192 8.46972 13.519L8.46479 12.519ZM8.39579 12.1064C8.41855 12.1064 8.44155 12.1064 8.46479 12.1065L8.46972 11.1065C8.44477 11.1064 8.42012 11.1064 8.39579 11.1064V12.1064ZM8.46479 12.1065C8.9448 12.1089 9.49637 12.137 9.91588 12.2274C10.1296 12.2734 10.2673 12.3272 10.3398 12.3736C10.4055 12.4156 10.3432 12.3979 10.3432 12.3128H11.3432C11.3432 11.9305 11.106 11.6766 10.8786 11.5312C10.6581 11.3902 10.3848 11.3055 10.1265 11.2498C9.60195 11.1368 8.96555 11.109 8.46972 11.1065L8.46479 12.1065ZM10.3432 9.62987C10.3432 9.51921 10.4229 9.49797 10.3445 9.54686C10.2677 9.59478 10.1254 9.65011 9.91063 9.69879C9.48935 9.79429 8.93626 9.83272 8.46372 9.83606L8.47079 10.836C8.97409 10.8325 9.60897 10.7925 10.1317 10.6741C10.389 10.6157 10.6577 10.5302 10.8739 10.3952C11.0886 10.2613 11.3432 10.0153 11.3432 9.62987H10.3432ZM8.46372 9.83606C8.44081 9.83622 8.41815 9.8363 8.39579 9.8363V10.8363C8.42051 10.8363 8.44552 10.8362 8.47079 10.836L8.46372 9.83606ZM8.96725 18.4152V15.7021H7.96725V18.4152H8.96725ZM8.39579 16.2021H8.46725V15.2021H8.39579V16.2021Z" fill="white"/>
</svg>
