<svg width="43" height="43" viewBox="0 0 43 43" fill="none" xmlns="http://www.w3.org/2000/svg">
<circle cx="21.5" cy="21.5" r="21" fill="#FEFCF8" stroke="#FFC700"/>
<rect x="14.1829" y="10.9798" width="14.9826" height="21.0202" fill="#823FAB"/>
<rect x="14.1829" y="11.6923" width="14.9826" height="1.78138" fill="#905EAF"/>
<rect x="14.1829" y="29.5061" width="14.9826" height="1.78138" fill="#905EAF"/>
<rect x="14.1829" y="25.2308" width="14.9826" height="1.78138" fill="#905EAF"/>
<rect x="14.183" y="15.6802" width="14.9826" height="1.78138" fill="#905EAF"/>
<rect x="9.65332" y="10.9798" width="4.18118" height="11.0445" fill="#D28800"/>
<rect x="11.047" y="21.668" width="2.78746" height="9.26316" fill="#D28800"/>
<rect x="29.1655" y="10.9798" width="4.18118" height="11.0445" fill="#D28800"/>
<rect x="29.1655" y="21.668" width="2.78746" height="9.26316" fill="#D28800"/>
<rect x="13.8345" y="20.5992" width="15.331" height="2.13765" fill="#FBB603"/>
<mask id="mask0_1_49" style="mask-type:alpha" maskUnits="userSpaceOnUse" x="9" y="10" width="25" height="22">
<path d="M33.1071 10H29.5357C29.2989 10 29.0718 10.0961 28.9044 10.2674C28.7369 10.4386 28.6429 10.6708 28.6429 10.913V11.8259H14.3571V10.913C14.3571 10.6708 14.2631 10.4386 14.0956 10.2674C13.9282 10.0961 13.7011 10 13.4643 10H9.89286C9.65606 10 9.42895 10.0961 9.26152 10.2674C9.09402 10.4386 9 10.6708 9 10.913V21.8684C9 22.1105 9.09403 22.3428 9.26152 22.514C9.42893 22.6852 9.65605 22.7814 9.89286 22.7814V30.998C9.89286 31.2401 9.98689 31.4723 10.1544 31.6435C10.3218 31.8148 10.5489 31.9109 10.7857 31.9109H32.2143C32.4511 31.9109 32.6782 31.8148 32.8456 31.6435C33.0131 31.4723 33.1071 31.2401 33.1071 30.998V22.7814C33.3439 22.7814 33.571 22.6852 33.7385 22.514C33.906 22.3428 34 22.1106 34 21.8684V10.913C34 10.6708 33.906 10.4386 33.7385 10.2674C33.5711 10.0961 33.344 10 33.1071 10ZM30.4286 11.8259H32.2143V20.9555H30.4286V11.8259ZM28.6429 13.6518V20.9555H25.0714V20.0425C25.0714 19.5583 24.8833 19.0938 24.5484 18.7514C24.2135 18.409 23.7593 18.2166 23.2857 18.2166H19.7143C19.2407 18.2166 18.7865 18.409 18.4516 18.7514C18.1167 19.0938 17.9286 19.5583 17.9286 20.0425V20.9555H14.3571V13.6518H28.6429ZM23.2857 23.6943H19.7143V20.0425H23.2857V23.6943ZM10.7857 11.8259H12.5714V20.9555H10.7857V11.8259ZM11.6786 22.7814H13.4643V30.085H11.6786V22.7814ZM15.25 22.7814H17.9286V23.6943C17.9286 24.1786 18.1167 24.6431 18.4516 24.9854C18.7865 25.3278 19.2407 25.5202 19.7143 25.5202H20.6071V26.4332C20.6071 26.7594 20.7773 27.0608 21.0536 27.2239C21.3298 27.387 21.6702 27.387 21.9464 27.2239C22.2227 27.0608 22.3929 26.7594 22.3929 26.4332V25.5202H23.2857C23.7593 25.5202 24.2135 25.3279 24.5484 24.9854C24.8833 24.6431 25.0714 24.1786 25.0714 23.6943V22.7814H27.75V30.085H15.25V22.7814ZM31.3214 30.085H29.5357V22.7814H31.3214V30.085Z" fill="black"/>
</mask>
<g mask="url(#mask0_1_49)">
<path fill-rule="evenodd" clip-rule="evenodd" d="M14.5519 3.1417H3.72998V22.7368H4.40635V40.5506H15.2282V20.9555H14.5519V3.1417Z" fill="#FBB603"/>
<path fill-rule="evenodd" clip-rule="evenodd" d="M39.27 3.1417H28.1202V22.7368H28.8171V40.5506H39.9669V20.9555H39.27V3.1417Z" fill="#FBB603"/>
</g>
<rect x="18.0157" y="18.1053" width="6.96864" height="7.48178" rx="3.48432" fill="#FBCF04"/>
<path d="M21.5 19.8866C19.9816 19.8866 20.4456 21.3356 20.8673 22.06C20.3612 23.665 20.6565 23.8433 20.8673 23.7318C21.2891 23.7876 22.1643 23.8656 22.2908 23.7318C22.4174 23.5981 22.2381 22.4501 22.1327 21.8928C22.5545 21.2241 23.0184 19.8866 21.5 19.8866Z" fill="#DB8E00"/>
</svg>
