<svg width="64" height="64" viewBox="0 0 64 64" fill="none" xmlns="http://www.w3.org/2000/svg">
<path d="M8 40C8 37.7909 9.79086 36 12 36H24C26.2091 36 28 37.7909 28 40V52C28 54.2091 26.2091 56 24 56H12C9.79086 56 8 54.2091 8 52V40Z" fill="#2ECCEF"/>
<path d="M6 16C6 13.7909 7.79086 12 10 12H24C26.2091 12 28 13.7909 28 16V30C28 32.2091 26.2091 34 24 34H10C7.79086 34 6 32.2091 6 30V16Z" fill="#FF5A96"/>
<path d="M30 40C30 37.7909 31.7909 36 34 36H48C50.2091 36 52 37.7909 52 40V54C52 56.2091 50.2091 58 48 58H34C31.7909 58 30 56.2091 30 54V40Z" fill="#FF5A96"/>
<path d="M30 10C30 7.79086 31.7909 6 34 6H54C56.2091 6 58 7.79086 58 10V30C58 32.2091 56.2091 34 54 34H34C31.7909 34 30 32.2091 30 30V10Z" fill="#FFD954"/>
</svg>
