<svg width="64" height="64" viewBox="0 0 64 64" fill="none" xmlns="http://www.w3.org/2000/svg">
<path fill-rule="evenodd" clip-rule="evenodd" d="M32 60C46.3594 60 58 47.464 58 32C58 16.536 46.3594 4 32 4C17.6406 4 6 16.536 6 32C6 47.464 17.6406 60 32 60ZM30 54C41.0457 54 50 44.1503 50 32C50 19.8497 41.0457 10 30 10C18.9543 10 10 19.8497 10 32C10 44.1503 18.9543 54 30 54Z" fill="#FF5A96"/>
<path fill-rule="evenodd" clip-rule="evenodd" d="M30 52C39.9411 52 48 43.0457 48 32C48 20.9543 39.9411 12 30 12C20.0589 12 12 20.9543 12 32C12 43.0457 20.0589 52 30 52ZM28 44C33.5228 44 38 38.6274 38 32C38 25.3726 33.5228 20 28 20C22.4772 20 18 25.3726 18 32C18 38.6274 22.4772 44 28 44Z" fill="#2ECCEF"/>
<path d="M36 32C36 37.5228 32.4183 42 28 42C23.5817 42 20 37.5228 20 32C20 26.4772 23.5817 22 28 22C32.4183 22 36 26.4772 36 32Z" fill="#FFD954"/>
</svg>
