<svg width="64" height="64" viewBox="0 0 64 64" fill="none" xmlns="http://www.w3.org/2000/svg">
<path d="M52 35C52 39.1534 50.5924 43.2135 47.9553 46.667C45.3181 50.1204 41.5698 52.812 37.1844 54.4015C32.799 55.9909 27.9734 56.4068 23.3178 55.5965C18.6623 54.7862 14.3859 52.7861 11.0294 49.8492C7.67299 46.9123 5.38721 43.1705 4.46116 39.0969C3.53512 35.0233 4.0104 30.8009 5.8269 26.9636C7.64341 23.1264 10.7195 19.8466 14.6663 17.5391C18.6131 15.2316 23.2533 14 28 14V35H52Z" fill="#FFD954"/>
<path d="M44 16C40.5 12.5 34.8893 11.0391 30 11L30 33L44 16Z" fill="#2ECCEF"/>
<path d="M59 33C59 30 57.7428 25.2604 56 22.5C54.2572 19.7396 50.8206 16.4682 48 14.5L32 33H59Z" fill="#FF5A96"/>
</svg>
